<svg width="60" height="60" viewBox="0 0 60 60" fill="red" xmlns="http://www.w3.org/2000/svg">
<path d="M30 0C13.4321 0 0 13.3771 0 29.8771C0 42.541 7.90123 53.3607 19.0617 57.7131C18.7901 55.3525 18.5679 51.7131 19.1605 49.1311C19.7037 46.7951 22.6667 34.2787 22.6667 34.2787C22.6667 34.2787 21.7778 32.4836 21.7778 29.8525C21.7778 25.6967 24.1975 22.5984 27.2099 22.5984C29.7778 22.5984 31.0123 24.5164 31.0123 26.8033C31.0123 29.3607 29.3827 33.1967 28.5185 36.7623C27.8025 39.7377 30.0247 42.1721 32.963 42.1721C38.2963 42.1721 42.3951 36.5656 42.3951 28.5C42.3951 21.3443 37.2346 16.3525 29.8519 16.3525C21.3086 16.3525 16.2963 22.7213 16.2963 29.3115C16.2963 31.8689 17.284 34.623 18.5185 36.123C18.7654 36.418 18.7901 36.6885 18.716 36.9836C18.4938 37.918 17.9753 39.959 17.8765 40.377C17.7531 40.918 17.4321 41.041 16.8642 40.7705C13.1111 39.0246 10.7654 33.5902 10.7654 29.1885C10.7654 19.7705 17.6296 11.1148 30.5926 11.1148C40.9877 11.1148 49.0864 18.4918 49.0864 28.377C49.0864 38.6803 42.5679 46.9672 33.5309 46.9672C30.4938 46.9672 27.6296 45.3934 26.6667 43.5246C26.6667 43.5246 25.1605 49.2295 24.7901 50.6311C24.1235 53.2377 22.2963 56.4836 21.0617 58.4754C23.8765 59.3361 26.8395 59.8033 29.9506 59.8033C46.5185 59.8033 59.9506 46.4262 59.9506 29.9262C60 13.377 46.5679 0 30 0Z" fill="#E60019"/>
</svg>
