<svg width="60" height="60" fill="red" xmlns="http://www.w3.org/2000/svg"><path d="M30 0C13.432 0 0 13.377 0 29.877c0 12.664 7.901 23.484 19.062 27.836-.272-2.36-.494-6 .098-8.582.544-2.336 3.507-14.852 3.507-14.852s-.89-1.795-.89-4.427c0-4.155 2.42-7.254 5.433-7.254 2.568 0 3.802 1.918 3.802 4.205 0 2.558-1.63 6.394-2.494 9.96-.716 2.975 1.507 5.41 4.445 5.41 5.333 0 9.432-5.607 9.432-13.673 0-7.156-5.16-12.148-12.543-12.148-8.543 0-13.556 6.37-13.556 12.96 0 2.557.988 5.311 2.223 6.811a.887.887 0 0 1 .197.86c-.222.935-.74 2.976-.84 3.394-.123.541-.444.664-1.012.393-3.753-1.745-6.099-7.18-6.099-11.582 0-9.418 6.865-18.073 19.828-18.073 10.395 0 18.493 7.377 18.493 17.262 0 10.303-6.518 18.59-15.555 18.59-3.037 0-5.901-1.574-6.864-3.442L24.79 50.63c-.666 2.607-2.494 5.853-3.728 7.844a30.245 30.245 0 0 0 8.889 1.328c16.568 0 30-13.377 30-29.877C60 13.377 46.568 0 30 0Z" fill="#E60019"/></svg>